<svg xmlns="http://www.w3.org/2000/svg" viewBox="0 0 458.44 458.44"><defs><style>.cls-1{fill:#14153a;}.cls-2{fill:#2e58a6;}.cls-3{fill:#41aa54;}.cls-4,.cls-5{fill:#fff;}.cls-5{opacity:0.11;}</style></defs><title>logo</title><g id="PLANET_MODEL" data-name="PLANET MODEL"><circle id="ORBIT" class="cls-1" cx="229.22" cy="229.22" r="229.22"/><path id="BASE" class="cls-2" d="M450.6,252.59a201.85,201.85,0,0,1-2.5,31.79A201,201,0,0,1,253.27,453.51c-1.21,0-2.4,0-3.61,0a200.55,200.55,0,0,1-157.93-76.7H268a29.14,29.14,0,1,0,0-58.27H191.29a11.66,11.66,0,0,1,0-23.32h8a22.52,22.52,0,0,0,20.11-32.67l0,0c-.2-.39-.4-.78-.62-1.15l-.2-.34c-.24-.39-.48-.75-.73-1.11s-.49-.69-.75-1l-.07-.08-.19-.25c-.28-.35-.57-.69-.86-1l0,0c-.35-.38-.7-.74-1.07-1.09s-.6-.56-.91-.81l-.07-.07a3.23,3.23,0,0,0-.27-.23c-.35-.29-.72-.59-1.1-.86s-.75-.52-1.13-.77l-.1-.06c-.36-.23-.73-.45-1.12-.67s-.62-.33-.94-.49-.42-.21-.64-.3-.35-.17-.54-.24-.63-.26-.95-.38l-.07,0-1-.35c-.29-.09-.58-.17-.88-.24s-.71-.19-1.07-.27-.43-.1-.64-.13l-.18,0-.68-.12-.94-.12c-.37,0-.76-.07-1.13-.08s-.78,0-1.16,0H145.71a22.52,22.52,0,0,0-18.29,9.42c-.16.21-.31.43-.46.65s-.47.72-.68,1.09c0,0,0,.08-.07.13-.22.36-.42.74-.61,1.11a22.52,22.52,0,0,0,20.11,32.67h2.53a11.64,11.64,0,0,1,8.23,19.89,11.56,11.56,0,0,1-8.23,3.43H59.8q-2.13-6.12-3.86-12.41H81.17a21.79,21.79,0,0,0,0-43.58H68.78a10.9,10.9,0,0,1,0-21.8h35.11a21.79,21.79,0,0,0,0-43.57H56.45A200.84,200.84,0,0,1,249.66,51.65c1.21,0,2.4,0,3.61,0A201.19,201.19,0,0,1,432.36,168.82c1,2.15,1.95,4.32,2.85,6.52.33.78.64,1.57,1,2.36.13.3.24.59.36.88.38,1,.76,1.93,1.13,2.92s.77,2.07,1.14,3.11.74,2.07,1.1,3.13c0,0,0,0,0,0,.33,1,.67,2,1,3.07l.09.26c.31,1,.63,2,.93,3,.67,2.19,1.3,4.41,1.89,6.63.31,1.16.61,2.33.9,3.5.08.32.15.62.22.93.21.86.42,1.73.61,2.61.08.29.14.59.2.89.23,1,.44,2,.64,3,0,.2.1.4.13.6.19.93.38,1.88.55,2.83.08.36.15.74.21,1.1q.26,1.29.45,2.58c.07.32.11.64.16,1,.2,1.19.39,2.38.56,3.58s.37,2.55.53,3.84A204.22,204.22,0,0,1,450.6,252.59Z" transform="translate(-20.69 -20.97)"/><g id="LAND"><path class="cls-3" d="M449,227.11H308.32a29.11,29.11,0,0,1-20.6-49.73c.37-.37.73-.72,1.1-1.06a29.1,29.1,0,0,1,19.5-7.5h124c1,2.15,1.95,4.32,2.85,6.52.33.78.64,1.57,1,2.36.13.3.24.59.36.88.38,1,.76,1.93,1.13,2.92s.77,2.07,1.14,3.11.74,2.07,1.1,3.13c0,0,0,0,0,0,.33,1,.67,2,1,3.07l.09.26c.31,1,.63,2,.93,3,.67,2.19,1.3,4.41,1.89,6.63.31,1.16.61,2.33.9,3.5.08.32.15.62.22.93.21.86.42,1.73.61,2.61.08.29.14.59.2.89.23,1,.44,2,.64,3,0,.2.1.4.13.6.19.93.38,1.88.55,2.83.08.36.15.74.21,1.1q.26,1.29.45,2.58c.07.32.11.64.16,1,.2,1.19.39,2.38.56,3.58S448.84,225.82,449,227.11Z" transform="translate(-20.69 -20.97)"/><path class="cls-3" d="M448.1,284.38a199.23,199.23,0,0,1-18.77,58.29H386.78a29.15,29.15,0,0,1-29.15-29.14h0a29.15,29.15,0,0,1,29.15-29.14Z" transform="translate(-20.69 -20.97)"/><path class="cls-3" d="M211.51,101a29.14,29.14,0,0,1-29.14,29.15H90.3a202,202,0,0,1,71.43-58.29h20.64A29.14,29.14,0,0,1,211.51,101Z" transform="translate(-20.69 -20.97)"/><path class="cls-3" d="M297.1,347.72A29.21,29.21,0,0,1,268,376.85H91.73A199.87,199.87,0,0,1,59.8,318.58h88.44a11.71,11.71,0,0,0,11.66-11.66,11.69,11.69,0,0,0-11.66-11.66h-2.53a22.52,22.52,0,0,1-20.11-32.67,24.44,24.44,0,0,1,1.36-2.33c.15-.22.3-.44.46-.65a22.52,22.52,0,0,1,18.29-9.42h53.58c.38,0,.77,0,1.16,0s.76.05,1.13.08l.94.12.68.12.18,0c.21,0,.43.08.64.13s.72.16,1.07.27.59.15.88.24l1,.35.07,0c.33.12.65.24.95.38s.36.16.54.24.43.2.64.3a19.56,19.56,0,0,1,2.06,1.16c.43.26.84.54,1.23.83s.75.57,1.1.86a3.23,3.23,0,0,1,.27.23c.34.28.67.58,1,.88s.72.71,1.07,1.09l0,0c.29.33.58.67.86,1l.19.25c.28.36.56.72.82,1.1s.49.72.73,1.11l.2.34c.22.37.42.76.62,1.15l0,0a22.55,22.55,0,0,1-20.11,32.67h-8a11.66,11.66,0,1,0,0,23.32H268A29.22,29.22,0,0,1,297.1,347.72Z" transform="translate(-20.69 -20.97)"/></g><g id="CLOUDS"><path class="cls-4" d="M435.21,175.34a17.89,17.89,0,0,1-5.84,1H285.88a17.93,17.93,0,0,1,0-35.86H416.43a200.23,200.23,0,0,1,15.93,28.36C433.35,171,434.31,173.14,435.21,175.34Z" transform="translate(-20.69 -20.97)"/><path class="cls-4" d="M417.68,362.84a200.8,200.8,0,0,1-30.07,35.87H371.87a17.94,17.94,0,0,1,0-35.87Z" transform="translate(-20.69 -20.97)"/><path class="cls-4" d="M125.67,219a21.84,21.84,0,0,1-21.78,21.78H68.78a10.9,10.9,0,0,0,0,21.8H81.17a21.79,21.79,0,0,1,0,43.58H55.94a199.37,199.37,0,0,1-7-43.58c-.17-3.31-.25-6.65-.25-10q0-5.93.35-11.8a198.69,198.69,0,0,1,7.39-43.57h47.44A21.85,21.85,0,0,1,125.67,219Z" transform="translate(-20.69 -20.97)"/><rect class="cls-4" x="130.22" y="101.22" width="52.04" height="22.42" rx="9.57"/></g><path id="SHADOW" class="cls-5" d="M450.6,252.59a201.85,201.85,0,0,1-2.5,31.79A201,201,0,0,1,253.27,453.51V51.69A201.19,201.19,0,0,1,432.36,168.82c1,2.15,1.95,4.32,2.85,6.52.33.78.64,1.57,1,2.36.13.3.24.59.36.88.38,1,.76,1.93,1.13,2.92s.77,2.07,1.14,3.11.74,2.07,1.1,3.13c0,0,0,0,0,0,.33,1,.67,2,1,3.07l.09.26c.31,1,.63,2,.93,3,.67,2.19,1.3,4.41,1.89,6.63.31,1.16.61,2.33.9,3.5.08.32.15.62.22.93.21.86.42,1.73.61,2.61.08.29.14.59.2.89.23,1,.44,2,.64,3,0,.2.1.4.13.6.19.93.38,1.88.55,2.83.08.36.15.74.21,1.1q.26,1.29.45,2.58c.07.32.11.64.16,1,.2,1.19.39,2.38.56,3.58s.37,2.55.53,3.84A204.22,204.22,0,0,1,450.6,252.59Z" transform="translate(-20.69 -20.97)"/></g></svg>